<?xml version="1.0" encoding="utf-8"?>
<!-- Generator: Adobe Illustrator 26.0.1, SVG Export Plug-In . SVG Version: 6.00 Build 0)  -->
<svg version="1.1" xmlns="http://www.w3.org/2000/svg" xmlns:xlink="http://www.w3.org/1999/xlink" x="0px" y="0px"
	 viewBox="0 0 24 24" style="enable-background:new 0 0 24 24;" xml:space="preserve">
<style type="text/css">
	.st0{fill:none;}
	.st1{clip-path:url(#SVGID_00000174602734789323561100000015502979467438245298_);}
	.st2{fill:none;stroke:#000000;stroke-width:0.25;stroke-miterlimit:10;}
	.st3{opacity:0.4;}
	
		.st4{clip-path:url(#SVGID_00000023965295365386539660000000130514226595045263_);fill:none;stroke:#000000;stroke-width:0.25;stroke-miterlimit:10;}
	.st5{clip-path:url(#SVGID_00000023965295365386539660000000130514226595045263_);}
	.st6{display:none;}
	.st7{display:inline;opacity:0.2;}
	.st8{display:inline;fill:none;stroke:#000000;stroke-width:0.4179;stroke-miterlimit:10;}
	.st9{display:inline;fill:none;stroke:#000000;stroke-width:0.5851;stroke-miterlimit:10;}
	.st10{display:inline;fill:none;stroke:#000000;stroke-width:0.5433;stroke-miterlimit:10;}
	.st11{display:inline;fill:none;stroke:#000000;stroke-width:0.7607;stroke-miterlimit:10;}
	.st12{display:inline;fill:none;stroke:#000000;stroke-width:0.6512;stroke-miterlimit:10;}
	.st13{display:inline;fill:none;stroke:#000000;stroke-width:0.9117;stroke-miterlimit:10;}
	.st14{display:inline;fill:none;stroke:#000000;stroke-width:0.5569;stroke-miterlimit:10;}
	.st15{display:inline;fill:none;stroke:#000000;stroke-width:0.7797;stroke-miterlimit:10;}
</style>
<symbol  id="material_x5F_system_x5F_icon_x5F_border" viewBox="0 -48 48 48">
	<rect y="-48" class="st0" width="48" height="48"/>
</symbol>
<symbol  id="material_x5F_system_x5F_icon_x5F_grid" viewBox="0 -48 48 48">
	<g>
		<defs>
			<rect id="SVGID_1_" x="0" y="-48" width="48" height="48"/>
		</defs>
		<clipPath id="SVGID_00000006685119474182972140000005088628990828575664_">
			<use xlink:href="#SVGID_1_"  style="overflow:visible;"/>
		</clipPath>
		<g style="clip-path:url(#SVGID_00000006685119474182972140000005088628990828575664_);">
			<g>
				<line class="st2" x1="2" y1="-48" x2="2" y2="0"/>
				<line class="st2" x1="4" y1="-48" x2="4" y2="0"/>
				<line class="st2" x1="6" y1="-48" x2="6" y2="0"/>
				<line class="st2" x1="8" y1="-48" x2="8" y2="0"/>
				<line class="st2" x1="10" y1="-48" x2="10" y2="0"/>
				<line class="st2" x1="12" y1="-48" x2="12" y2="0"/>
				<line class="st2" x1="14" y1="-48" x2="14" y2="0"/>
				<line class="st2" x1="16" y1="-48" x2="16" y2="0"/>
				<line class="st2" x1="18" y1="-48" x2="18" y2="0"/>
				<line class="st2" x1="20" y1="-48" x2="20" y2="0"/>
				<line class="st2" x1="22" y1="-48" x2="22" y2="0"/>
				<line class="st2" x1="24" y1="-48" x2="24" y2="0"/>
				<line class="st2" x1="26" y1="-48" x2="26" y2="0"/>
				<line class="st2" x1="28" y1="-48" x2="28" y2="0"/>
				<line class="st2" x1="30" y1="-48" x2="30" y2="0"/>
				<line class="st2" x1="32" y1="-48" x2="32" y2="0"/>
				<line class="st2" x1="34" y1="-48" x2="34" y2="0"/>
				<line class="st2" x1="36" y1="-48" x2="36" y2="0"/>
				<line class="st2" x1="38" y1="-48" x2="38" y2="0"/>
				<line class="st2" x1="40" y1="-48" x2="40" y2="0"/>
				<line class="st2" x1="42" y1="-48" x2="42" y2="0"/>
				<line class="st2" x1="44" y1="-48" x2="44" y2="0"/>
				<line class="st2" x1="46" y1="-48" x2="46" y2="0"/>
			</g>
			<g>
				<line class="st2" x1="0" y1="-2" x2="48" y2="-2"/>
				<line class="st2" x1="0" y1="-4" x2="48" y2="-4"/>
				<line class="st2" x1="0" y1="-6" x2="48" y2="-6"/>
				<line class="st2" x1="0" y1="-8" x2="48" y2="-8"/>
				<line class="st2" x1="0" y1="-10" x2="48" y2="-10"/>
				<line class="st2" x1="0" y1="-12" x2="48" y2="-12"/>
				<line class="st2" x1="0" y1="-14" x2="48" y2="-14"/>
				<line class="st2" x1="0" y1="-16" x2="48" y2="-16"/>
				<line class="st2" x1="0" y1="-18" x2="48" y2="-18"/>
				<line class="st2" x1="0" y1="-20" x2="48" y2="-20"/>
				<line class="st2" x1="0" y1="-22" x2="48" y2="-22"/>
				<line class="st2" x1="0" y1="-24" x2="48" y2="-24"/>
				<line class="st2" x1="0" y1="-26" x2="48" y2="-26"/>
				<line class="st2" x1="0" y1="-28" x2="48" y2="-28"/>
				<line class="st2" x1="0" y1="-30" x2="48" y2="-30"/>
				<line class="st2" x1="0" y1="-32" x2="48" y2="-32"/>
				<line class="st2" x1="0" y1="-34" x2="48" y2="-34"/>
				<line class="st2" x1="0" y1="-36" x2="48" y2="-36"/>
				<line class="st2" x1="0" y1="-38" x2="48" y2="-38"/>
				<line class="st2" x1="0" y1="-40" x2="48" y2="-40"/>
				<line class="st2" x1="0" y1="-42" x2="48" y2="-42"/>
				<line class="st2" x1="0" y1="-44" x2="48" y2="-44"/>
				<line class="st2" x1="0" y1="-46" x2="48" y2="-46"/>
			</g>
			<g>
				<path d="M47.7-0.2v-47.5H0.2v47.5H47.7 M48,0H0v-48h48V0L48,0z"/>
			</g>
		</g>
	</g>
</symbol>
<symbol  id="material_x5F_system_x5F_icon_x5F_keylines" viewBox="0 -48 48 48">
	<g class="st3">
		<defs>
			<rect id="SVGID_00000062175290467446542230000001353180085923910826_" x="0" y="-48" class="st3" width="48" height="48"/>
		</defs>
		<clipPath id="SVGID_00000101090251494854427350000012011097074656084631_">
			<use xlink:href="#SVGID_00000062175290467446542230000001353180085923910826_"  style="overflow:visible;"/>
		</clipPath>
		
			<line style="clip-path:url(#SVGID_00000101090251494854427350000012011097074656084631_);fill:none;stroke:#000000;stroke-width:0.25;stroke-miterlimit:10;" x1="24" y1="0" x2="24" y2="-48"/>
		
			<line style="clip-path:url(#SVGID_00000101090251494854427350000012011097074656084631_);fill:none;stroke:#000000;stroke-width:0.25;stroke-miterlimit:10;" x1="48" y1="-24" x2="0" y2="-24"/>
		
			<line style="clip-path:url(#SVGID_00000101090251494854427350000012011097074656084631_);fill:none;stroke:#000000;stroke-width:0.25;stroke-miterlimit:10;" x1="48" y1="-16" x2="0" y2="-16"/>
		
			<line style="clip-path:url(#SVGID_00000101090251494854427350000012011097074656084631_);fill:none;stroke:#000000;stroke-width:0.25;stroke-miterlimit:10;" x1="48" y1="-32" x2="0" y2="-32"/>
		
			<line style="clip-path:url(#SVGID_00000101090251494854427350000012011097074656084631_);fill:none;stroke:#000000;stroke-width:0.25;stroke-miterlimit:10;" x1="32" y1="-48" x2="32" y2="0"/>
		
			<line style="clip-path:url(#SVGID_00000101090251494854427350000012011097074656084631_);fill:none;stroke:#000000;stroke-width:0.25;stroke-miterlimit:10;" x1="16" y1="-48" x2="16" y2="0"/>
		
			<line style="clip-path:url(#SVGID_00000101090251494854427350000012011097074656084631_);fill:none;stroke:#000000;stroke-width:0.25;stroke-miterlimit:10;" x1="47.7" y1="-0.3" x2="0.2" y2="-47.8"/>
		
			<line style="clip-path:url(#SVGID_00000101090251494854427350000012011097074656084631_);fill:none;stroke:#000000;stroke-width:0.25;stroke-miterlimit:10;" x1="0.2" y1="-0.3" x2="47.7" y2="-47.8"/>
		
			<path style="clip-path:url(#SVGID_00000101090251494854427350000012011097074656084631_);fill:none;stroke:#000000;stroke-width:0.25;stroke-miterlimit:10;" d="
			M24-14c-5.5,0-10-4.5-10-10c0-5.5,4.5-10,10-10c5.5,0,10,4.5,10,10C34-18.5,29.5-14,24-14z"/>
		
			<path style="clip-path:url(#SVGID_00000101090251494854427350000012011097074656084631_);fill:none;stroke:#000000;stroke-width:0.25;stroke-miterlimit:10;" d="
			M24-4C12.9-4,4-12.9,4-24c0-11.1,8.9-20,20-20c11.1,0,20,8.9,20,20C44-12.9,35.1-4,24-4z"/>
		
			<path style="clip-path:url(#SVGID_00000101090251494854427350000012011097074656084631_);fill:none;stroke:#000000;stroke-width:0.25;stroke-miterlimit:10;" d="
			M38-6H10c-2.2,0-4-1.8-4-4v-28c0-2.2,1.8-4,4-4h28c2.2,0,4,1.8,4,4v28C42-7.8,40.2-6,38-6z"/>
		
			<path style="clip-path:url(#SVGID_00000101090251494854427350000012011097074656084631_);fill:none;stroke:#000000;stroke-width:0.25;stroke-miterlimit:10;" d="
			M40-8H8c-2.2,0-4-1.8-4-4v-24c0-2.2,1.8-4,4-4h32c2.2,0,4,1.8,4,4l0,24C44-9.8,42.2-8,40-8z"/>
		
			<path style="clip-path:url(#SVGID_00000101090251494854427350000012011097074656084631_);fill:none;stroke:#000000;stroke-width:0.25;stroke-miterlimit:10;" d="
			M40-40v32c0,2.2-1.8,4-4,4H12C9.8-4,8-5.8,8-8v-32c0-2.2,1.8-4,4-4h24C38.2-44,40-42.2,40-40z"/>
		<g style="clip-path:url(#SVGID_00000101090251494854427350000012011097074656084631_);">
			<path d="M47.7-0.3v-47.5H0.2v47.5H47.7 M48,0H0v-48h48V0L48,0z"/>
		</g>
	</g>
</symbol>
<g class="st6">
	<circle id="circle" class="st7" cx="12" cy="12" r="10"/>
	<path id="Rectangle" class="st7" d="M19,21H5c-1.1,0-2-0.9-2-2V5c0-1.1,0.9-2,2-2h14c1.1,0,2,0.9,2,2v14C21,20.1,20.1,21,19,21z"/>
	<path id="Vertical_Rectangle" class="st7" d="M6,22h12c1.1,0,2-0.9,2-2V4c0-1.1-0.9-2-2-2H6C4.9,2,4,2.9,4,4v16C4,21.1,4.9,22,6,22
		z"/>
	<path id="Horizontal_Rectangle" class="st7" d="M22,18V6c0-1.1-0.9-2-2-2H4C2.9,4,2,4.9,2,6v12c0,1.1,0.9,2,2,2h16
		C21.1,20,22,19.1,22,18z"/>
</g>
<g id="border" class="st6">
	
		<use xlink:href="#material_x5F_system_x5F_icon_x5F_border"  width="48" height="48" id="XMLID_2_" y="-48" transform="matrix(0.5 0 0 -0.5 -1.144415e-04 -8.010902e-05)" style="display:inline;overflow:visible;"/>
</g>
<g id="grid" class="st6">
	
		<use xlink:href="#material_x5F_system_x5F_icon_x5F_grid"  width="48" height="48" id="XMLID_1_" x="0" y="-48" transform="matrix(0.5 0 0 -0.5 -1.144415e-04 -8.010902e-05)" style="display:inline;overflow:visible;opacity:0.15;"/>
</g>
<g id="keylines" class="st6">
	
		<use xlink:href="#material_x5F_system_x5F_icon_x5F_keylines"  width="48" height="48" id="XMLID_3_" x="0" y="-48" transform="matrix(0.5 0 0 -0.5 -1.144415e-04 -8.010902e-05)" style="display:inline;overflow:visible;"/>
</g>
<g id="Layer_5">
	<g class="st6">
		<rect x="3" y="12.3" class="st8" width="9" height="1.5"/>
		<rect x="3" y="13.8" class="st8" width="9" height="3.4"/>
		<line class="st8" x1="2" y1="12.3" x2="22" y2="12.3"/>
		<line class="st9" x1="3" y1="12.3" x2="3" y2="18.6"/>
		<line class="st9" x1="20.9" y1="12.3" x2="20.9" y2="18.6"/>
		<line class="st9" x1="11.9" y1="17.2" x2="11.9" y2="18.6"/>
		<line class="st8" x1="6.9" y1="15.5" x2="8" y2="15.5"/>
		<rect x="11.9" y="12.3" class="st8" width="9" height="1.5"/>
		<rect x="11.9" y="13.8" class="st8" width="9" height="3.4"/>
		<line class="st8" x1="15.9" y1="15.5" x2="17" y2="15.5"/>
		<rect x="7.2" y="5.4" class="st8" width="9.5" height="5.4"/>
		<line class="st9" x1="8.9" y1="10.8" x2="7.9" y2="12.3"/>
		<line class="st9" x1="15" y1="10.8" x2="16" y2="12.3"/>
	</g>
	<g class="st6">
		<rect x="4.8" y="2" class="st10" width="14.6" height="18.5"/>
		<rect x="4.8" y="15.5" class="st10" width="7.3" height="5"/>
		<rect x="4.8" y="11" class="st10" width="7.3" height="4.5"/>
		<rect x="4.8" y="6.5" class="st10" width="7.3" height="4.5"/>
		<rect x="4.8" y="2" class="st10" width="7.3" height="4.5"/>
		<line class="st10" x1="3.5" y1="2" x2="20.5" y2="2"/>
		<line class="st11" x1="6.8" y1="20.5" x2="6.8" y2="22"/>
		<line class="st11" x1="17.1" y1="20.5" x2="17.1" y2="22"/>
		<line class="st10" x1="13.9" y1="10.3" x2="13.9" y2="11.8"/>
	</g>
	<g class="st6">
		<rect x="2" y="14.1" class="st12" width="20" height="4.2"/>
		<line class="st13" x1="3" y1="18.3" x2="3" y2="21.6"/>
		<line class="st13" x1="21" y1="18.3" x2="21" y2="21.6"/>
		<path class="st12" d="M12,2.4L12,2.4c-4.7,0-8.5,3.8-8.5,8.5v0.2h16.9v-0.2C20.5,6.2,16.7,2.4,12,2.4z"/>
		<path class="st12" d="M15.4,11H8.6l0,0c0-1.4,1.1-2.5,2.5-2.5h1.8C14.3,8.5,15.4,9.6,15.4,11L15.4,11z"/>
		<path class="st12" d="M3.5,11.1L2,13.9C2,14,2,14.1,2.1,14.1h19.7c0.1,0,0.2-0.1,0.1-0.2l-1.5-2.8H3.5z"/>
	</g>
	<g class="st6">
		<rect x="2" y="14" class="st12" width="20" height="4.2"/>
		<line class="st13" x1="3" y1="18.1" x2="3" y2="21.4"/>
		<line class="st13" x1="21" y1="18.1" x2="21" y2="21.4"/>
		<path class="st12" d="M3.5,10.9L2,13.8C2,13.8,2,14,2.1,14h19.7c0.1,0,0.2-0.1,0.1-0.2l-1.5-2.8H3.5z"/>
		<path class="st12" d="M20.1,6.8c0-2.3-1.9-4.2-4.2-4.2h-0.3c-0.7,0-1.4,0.2-2,0.5c-1,0.5-2.2,0.5-3.1,0c-0.6-0.3-1.3-0.5-2-0.5
			H8.1c-2.3,0-4.2,1.9-4.2,4.2l-0.3,4.1h16.9L20.1,6.8z"/>
		<path class="st12" d="M11.5,7.5H7.1C6.8,7.5,6.5,7.7,6.5,8v2.4c0,0.3,0.2,0.5,0.5,0.5h4.4c0.3,0,0.5-0.2,0.5-0.5V8
			C12,7.7,11.8,7.5,11.5,7.5z"/>
		<path class="st12" d="M16.9,7.5h-4.4C12.2,7.5,12,7.7,12,8v2.4c0,0.3,0.2,0.5,0.5,0.5h4.4c0.3,0,0.5-0.2,0.5-0.5V8
			C17.5,7.7,17.2,7.5,16.9,7.5z"/>
	</g>
	<g class="st6">
		<path class="st14" d="M16.3,15.5H3.2c-0.7,0-1.2-0.5-1.2-1.2l0,0C2,13.6,2.5,13,3.2,13h15.5"/>
		<path class="st14" d="M20.2,4c-0.8,0.1-1.5,0.9-1.5,1.7c0,1.9,0,6.5,0,8.6c0,0.6-0.5,1.1-1.1,1.1H5.8H2.6v2l19.4,0V5.6
			C22,4.7,21.2,3.9,20.2,4z"/>
		<path class="st14" d="M14.1,10.6h3.5c0.7,0,1.2,0.5,1.2,1.2l0,0c0,0.7-0.5,1.2-1.2,1.2h-3.5c-0.7,0-1.2-0.5-1.2-1.2l0,0
			C12.9,11.2,13.4,10.6,14.1,10.6z"/>
		<line class="st15" x1="3.5" y1="17.5" x2="3.5" y2="20"/>
		<line class="st15" x1="21.1" y1="17.5" x2="21.1" y2="20"/>
	</g>
	<g>
		<path d="M14.7,16.7H9.3C9.1,16.7,9,16.8,9,17v3.3c0,0.2,0.1,0.3,0.3,0.3h5.3c0.2,0,0.3-0.1,0.3-0.3V17
			C15,16.8,14.9,16.7,14.7,16.7z M14.3,20H9.7v-2.7h4.7V20z"/>
		<rect x="9" y="15.3" width="0.7" height="0.7"/>
		<rect x="10.3" y="15.3" width="0.7" height="0.7"/>
		<rect x="11.7" y="15.3" width="0.7" height="0.7"/>
		<rect x="13" y="15.3" width="0.7" height="0.7"/>
		<rect x="14.3" y="15.3" width="0.7" height="0.7"/>
		<path d="M21.7,14h-5.3h-0.7v-1c0-0.2-0.1-0.3-0.3-0.3h-1v0.7H15V14h-2v-0.7h0.7v-0.7h-1c-0.2,0-0.3,0.1-0.3,0.3v1h-0.7v-1
			c0-0.2-0.1-0.3-0.3-0.3h-1v0.7H11V14H9v-0.7h0.7v-0.7h-1c-0.2,0-0.3,0.1-0.3,0.3v1H7.7H3.3v-2.3C3.3,11.3,3.6,11,4,11
			s0.7,0.3,0.7,0.7V12h0.7v-0.3c0-0.7-0.6-1.3-1.3-1.3s-1.3,0.6-1.3,1.3v1H2v0.7h0.7V14H2.3C2.1,14,2,14.1,2,14.3v1.3v6
			C2,21.9,2.1,22,2.3,22h5.3h8.7h5.3c0.2,0,0.3-0.1,0.3-0.3v-6v-1.3C22,14.1,21.9,14,21.7,14z M21.3,15.3h-4.7v-0.7h4.7V15.3z
			 M21.3,17h-4.7v-1h2v0.3h0.7V16h2V17z M16.7,18.7v-1h2V18h0.7v-0.3h2v1H16.7z M7.3,20h-2v-4h2V20z M2.7,20v-4h2v4H2.7z M2.7,14.7
			h4.7v0.7H2.7V14.7z M2.7,20.7h4.7v0.7H2.7V20.7z M8,15.7v-1h8v1v5.7H8V15.7z M16.7,21.3v-2h2v0.3h0.7v-0.3h2v2H16.7z"/>
		<path d="M21.7,2h-5.3C16.1,2,16,2.1,16,2.3v4.9l-0.7-1V2.3C15.3,2.1,15.2,2,15,2H9C8.8,2,8.7,2.1,8.7,2.3v3.9L8,7.2V2.3
			C8,2.1,7.9,2,7.7,2H2.3C2.1,2,2,2.1,2,2.3v6c0,0.2,0.1,0.3,0.3,0.3h5.3h8.7h5.3c0.2,0,0.3-0.1,0.3-0.3v-6C22,2.1,21.9,2,21.7,2z
			 M7.3,8H2.7V2.7h4.7V8z M8.3,8l1-1.5c0-0.1,0.1-0.1,0.1-0.2V2.7h5.3v3.7c0,0.1,0,0.1,0.1,0.2l1,1.5H8.3z M21.3,8h-4.7V2.7h4.7V8z"
			/>
		<rect x="17.3" y="6.7" width="3.3" height="0.7"/>
		<rect x="3.3" y="6.7" width="3.3" height="0.7"/>
		<rect x="10" y="3.3" width="0.7" height="0.7"/>
		<rect x="10" y="4.7" width="0.7" height="1.7"/>
		<rect x="3.3" y="17" width="0.7" height="0.7"/>
		<rect x="6" y="17" width="0.7" height="0.7"/>
	</g>
</g>
</svg>
