<?xml version="1.0" encoding="utf-8"?>
<!-- Generator: Adobe Illustrator 26.0.1, SVG Export Plug-In . SVG Version: 6.00 Build 0)  -->
<svg version="1.1" xmlns="http://www.w3.org/2000/svg" xmlns:xlink="http://www.w3.org/1999/xlink" x="0px" y="0px"
	 viewBox="0 0 24 24" style="enable-background:new 0 0 24 24;" xml:space="preserve">
<style type="text/css">
	.st0{fill:none;}
	.st1{clip-path:url(#SVGID_00000065036171979773972410000018358954369635061644_);}
	.st2{fill:none;stroke:#000000;stroke-width:0.25;stroke-miterlimit:10;}
	.st3{opacity:0.4;}
	
		.st4{clip-path:url(#SVGID_00000078725551041286248090000004512816905249610423_);fill:none;stroke:#000000;stroke-width:0.25;stroke-miterlimit:10;}
	.st5{clip-path:url(#SVGID_00000078725551041286248090000004512816905249610423_);}
	.st6{display:none;}
	.st7{display:inline;opacity:0.2;}
	.st8{fill:none;stroke:#000000;stroke-width:0.4179;stroke-miterlimit:10;}
	.st9{fill:none;stroke:#000000;stroke-width:0.5851;stroke-miterlimit:10;}
	.st10{display:inline;fill:none;stroke:#B56F3B;stroke-width:0.4793;stroke-miterlimit:10;}
	.st11{display:inline;fill:none;stroke:#B56F3B;stroke-width:0.6711;stroke-miterlimit:10;}
	.st12{display:inline;}
</style>
<symbol  id="material_x5F_system_x5F_icon_x5F_border" viewBox="0 -48 48 48">
	<rect y="-48" class="st0" width="48" height="48"/>
</symbol>
<symbol  id="material_x5F_system_x5F_icon_x5F_grid" viewBox="0 -48 48 48">
	<g>
		<defs>
			<rect id="SVGID_1_" x="0" y="-48" width="48" height="48"/>
		</defs>
		<clipPath id="SVGID_00000072963216825990552240000005556136613309046146_">
			<use xlink:href="#SVGID_1_"  style="overflow:visible;"/>
		</clipPath>
		<g style="clip-path:url(#SVGID_00000072963216825990552240000005556136613309046146_);">
			<g>
				<line class="st2" x1="2" y1="-48" x2="2" y2="0"/>
				<line class="st2" x1="4" y1="-48" x2="4" y2="0"/>
				<line class="st2" x1="6" y1="-48" x2="6" y2="0"/>
				<line class="st2" x1="8" y1="-48" x2="8" y2="0"/>
				<line class="st2" x1="10" y1="-48" x2="10" y2="0"/>
				<line class="st2" x1="12" y1="-48" x2="12" y2="0"/>
				<line class="st2" x1="14" y1="-48" x2="14" y2="0"/>
				<line class="st2" x1="16" y1="-48" x2="16" y2="0"/>
				<line class="st2" x1="18" y1="-48" x2="18" y2="0"/>
				<line class="st2" x1="20" y1="-48" x2="20" y2="0"/>
				<line class="st2" x1="22" y1="-48" x2="22" y2="0"/>
				<line class="st2" x1="24" y1="-48" x2="24" y2="0"/>
				<line class="st2" x1="26" y1="-48" x2="26" y2="0"/>
				<line class="st2" x1="28" y1="-48" x2="28" y2="0"/>
				<line class="st2" x1="30" y1="-48" x2="30" y2="0"/>
				<line class="st2" x1="32" y1="-48" x2="32" y2="0"/>
				<line class="st2" x1="34" y1="-48" x2="34" y2="0"/>
				<line class="st2" x1="36" y1="-48" x2="36" y2="0"/>
				<line class="st2" x1="38" y1="-48" x2="38" y2="0"/>
				<line class="st2" x1="40" y1="-48" x2="40" y2="0"/>
				<line class="st2" x1="42" y1="-48" x2="42" y2="0"/>
				<line class="st2" x1="44" y1="-48" x2="44" y2="0"/>
				<line class="st2" x1="46" y1="-48" x2="46" y2="0"/>
			</g>
			<g>
				<line class="st2" x1="0" y1="-2" x2="48" y2="-2"/>
				<line class="st2" x1="0" y1="-4" x2="48" y2="-4"/>
				<line class="st2" x1="0" y1="-6" x2="48" y2="-6"/>
				<line class="st2" x1="0" y1="-8" x2="48" y2="-8"/>
				<line class="st2" x1="0" y1="-10" x2="48" y2="-10"/>
				<line class="st2" x1="0" y1="-12" x2="48" y2="-12"/>
				<line class="st2" x1="0" y1="-14" x2="48" y2="-14"/>
				<line class="st2" x1="0" y1="-16" x2="48" y2="-16"/>
				<line class="st2" x1="0" y1="-18" x2="48" y2="-18"/>
				<line class="st2" x1="0" y1="-20" x2="48" y2="-20"/>
				<line class="st2" x1="0" y1="-22" x2="48" y2="-22"/>
				<line class="st2" x1="0" y1="-24" x2="48" y2="-24"/>
				<line class="st2" x1="0" y1="-26" x2="48" y2="-26"/>
				<line class="st2" x1="0" y1="-28" x2="48" y2="-28"/>
				<line class="st2" x1="0" y1="-30" x2="48" y2="-30"/>
				<line class="st2" x1="0" y1="-32" x2="48" y2="-32"/>
				<line class="st2" x1="0" y1="-34" x2="48" y2="-34"/>
				<line class="st2" x1="0" y1="-36" x2="48" y2="-36"/>
				<line class="st2" x1="0" y1="-38" x2="48" y2="-38"/>
				<line class="st2" x1="0" y1="-40" x2="48" y2="-40"/>
				<line class="st2" x1="0" y1="-42" x2="48" y2="-42"/>
				<line class="st2" x1="0" y1="-44" x2="48" y2="-44"/>
				<line class="st2" x1="0" y1="-46" x2="48" y2="-46"/>
			</g>
			<g>
				<path d="M47.7-0.2v-47.5H0.2v47.5H47.7 M48,0H0v-48h48V0L48,0z"/>
			</g>
		</g>
	</g>
</symbol>
<symbol  id="material_x5F_system_x5F_icon_x5F_keylines" viewBox="0 -48 48 48">
	<g class="st3">
		<defs>
			<rect id="SVGID_00000079475151802639244630000010933897966316989083_" x="0" y="-48" class="st3" width="48" height="48"/>
		</defs>
		<clipPath id="SVGID_00000100358300414507587800000004988180017201558154_">
			<use xlink:href="#SVGID_00000079475151802639244630000010933897966316989083_"  style="overflow:visible;"/>
		</clipPath>
		
			<line style="clip-path:url(#SVGID_00000100358300414507587800000004988180017201558154_);fill:none;stroke:#000000;stroke-width:0.25;stroke-miterlimit:10;" x1="24" y1="0" x2="24" y2="-48"/>
		
			<line style="clip-path:url(#SVGID_00000100358300414507587800000004988180017201558154_);fill:none;stroke:#000000;stroke-width:0.25;stroke-miterlimit:10;" x1="48" y1="-24" x2="0" y2="-24"/>
		
			<line style="clip-path:url(#SVGID_00000100358300414507587800000004988180017201558154_);fill:none;stroke:#000000;stroke-width:0.25;stroke-miterlimit:10;" x1="48" y1="-16" x2="0" y2="-16"/>
		
			<line style="clip-path:url(#SVGID_00000100358300414507587800000004988180017201558154_);fill:none;stroke:#000000;stroke-width:0.25;stroke-miterlimit:10;" x1="48" y1="-32" x2="0" y2="-32"/>
		
			<line style="clip-path:url(#SVGID_00000100358300414507587800000004988180017201558154_);fill:none;stroke:#000000;stroke-width:0.25;stroke-miterlimit:10;" x1="32" y1="-48" x2="32" y2="0"/>
		
			<line style="clip-path:url(#SVGID_00000100358300414507587800000004988180017201558154_);fill:none;stroke:#000000;stroke-width:0.25;stroke-miterlimit:10;" x1="16" y1="-48" x2="16" y2="0"/>
		
			<line style="clip-path:url(#SVGID_00000100358300414507587800000004988180017201558154_);fill:none;stroke:#000000;stroke-width:0.25;stroke-miterlimit:10;" x1="47.7" y1="-0.3" x2="0.2" y2="-47.8"/>
		
			<line style="clip-path:url(#SVGID_00000100358300414507587800000004988180017201558154_);fill:none;stroke:#000000;stroke-width:0.25;stroke-miterlimit:10;" x1="0.2" y1="-0.3" x2="47.7" y2="-47.8"/>
		
			<path style="clip-path:url(#SVGID_00000100358300414507587800000004988180017201558154_);fill:none;stroke:#000000;stroke-width:0.25;stroke-miterlimit:10;" d="
			M24-14c-5.5,0-10-4.5-10-10c0-5.5,4.5-10,10-10c5.5,0,10,4.5,10,10C34-18.5,29.5-14,24-14z"/>
		
			<path style="clip-path:url(#SVGID_00000100358300414507587800000004988180017201558154_);fill:none;stroke:#000000;stroke-width:0.25;stroke-miterlimit:10;" d="
			M24-4C12.9-4,4-12.9,4-24c0-11.1,8.9-20,20-20c11.1,0,20,8.9,20,20C44-12.9,35.1-4,24-4z"/>
		
			<path style="clip-path:url(#SVGID_00000100358300414507587800000004988180017201558154_);fill:none;stroke:#000000;stroke-width:0.25;stroke-miterlimit:10;" d="
			M38-6H10c-2.2,0-4-1.8-4-4v-28c0-2.2,1.8-4,4-4h28c2.2,0,4,1.8,4,4v28C42-7.8,40.2-6,38-6z"/>
		
			<path style="clip-path:url(#SVGID_00000100358300414507587800000004988180017201558154_);fill:none;stroke:#000000;stroke-width:0.25;stroke-miterlimit:10;" d="
			M40-8H8c-2.2,0-4-1.8-4-4v-24c0-2.2,1.8-4,4-4h32c2.2,0,4,1.8,4,4l0,24C44-9.8,42.2-8,40-8z"/>
		
			<path style="clip-path:url(#SVGID_00000100358300414507587800000004988180017201558154_);fill:none;stroke:#000000;stroke-width:0.25;stroke-miterlimit:10;" d="
			M40-40v32c0,2.2-1.8,4-4,4H12C9.8-4,8-5.8,8-8v-32c0-2.2,1.8-4,4-4h24C38.2-44,40-42.2,40-40z"/>
		<g style="clip-path:url(#SVGID_00000100358300414507587800000004988180017201558154_);">
			<path d="M47.7-0.3v-47.5H0.2v47.5H47.7 M48,0H0v-48h48V0L48,0z"/>
		</g>
	</g>
</symbol>
<g class="st6">
	<circle id="circle" class="st7" cx="12" cy="12" r="10"/>
	<path id="Rectangle" class="st7" d="M19,21H5c-1.1,0-2-0.9-2-2V5c0-1.1,0.9-2,2-2h14c1.1,0,2,0.9,2,2v14C21,20.1,20.1,21,19,21z"/>
	<path id="Vertical_Rectangle" class="st7" d="M6,22h12c1.1,0,2-0.9,2-2V4c0-1.1-0.9-2-2-2H6C4.9,2,4,2.9,4,4v16C4,21.1,4.9,22,6,22
		z"/>
	<path id="Horizontal_Rectangle" class="st7" d="M22,18V6c0-1.1-0.9-2-2-2H4C2.9,4,2,4.9,2,6v12c0,1.1,0.9,2,2,2h16
		C21.1,20,22,19.1,22,18z"/>
</g>
<g id="border" class="st6">
	
		<use xlink:href="#material_x5F_system_x5F_icon_x5F_border"  width="48" height="48" id="XMLID_2_" y="-48" transform="matrix(0.5 0 0 -0.5 -1.144415e-04 -8.010902e-05)" style="display:inline;overflow:visible;"/>
</g>
<g id="grid" class="st6">
	
		<use xlink:href="#material_x5F_system_x5F_icon_x5F_grid"  width="48" height="48" id="XMLID_1_" x="0" y="-48" transform="matrix(0.5 0 0 -0.5 -1.144415e-04 -8.010902e-05)" style="display:inline;overflow:visible;opacity:0.15;"/>
</g>
<g id="keylines" class="st6">
	
		<use xlink:href="#material_x5F_system_x5F_icon_x5F_keylines"  width="48" height="48" id="XMLID_3_" x="0" y="-48" transform="matrix(0.5 0 0 -0.5 -1.144415e-04 -8.010902e-05)" style="display:inline;overflow:visible;"/>
</g>
<g id="Layer_5">
	<g>
		<rect x="3" y="12.3" class="st8" width="9" height="1.5"/>
		<rect x="3" y="13.8" class="st8" width="9" height="3.4"/>
		<line class="st8" x1="2" y1="12.3" x2="22" y2="12.3"/>
		<line class="st9" x1="3" y1="12.3" x2="3" y2="18.6"/>
		<line class="st9" x1="20.9" y1="12.3" x2="20.9" y2="18.6"/>
		<line class="st9" x1="11.9" y1="17.2" x2="11.9" y2="18.6"/>
		<line class="st8" x1="6.9" y1="15.5" x2="8" y2="15.5"/>
		<rect x="11.9" y="12.3" class="st8" width="9" height="1.5"/>
		<rect x="11.9" y="13.8" class="st8" width="9" height="3.4"/>
		<line class="st8" x1="15.9" y1="15.5" x2="17" y2="15.5"/>
		<rect x="7.2" y="5.4" class="st8" width="9.5" height="5.4"/>
		<line class="st9" x1="8.9" y1="10.8" x2="7.9" y2="12.3"/>
		<line class="st9" x1="15" y1="10.8" x2="16" y2="12.3"/>
	</g>
	<g class="st6">
		<rect x="75.9" y="20.7" class="st10" width="12.9" height="16.3"/>
		<rect x="75.9" y="32.7" class="st10" width="6.4" height="4.4"/>
		<rect x="75.9" y="28.7" class="st10" width="6.4" height="4"/>
		<rect x="75.9" y="24.7" class="st10" width="6.4" height="4"/>
		<rect x="75.9" y="20.7" class="st10" width="6.4" height="4"/>
		<line class="st10" x1="74.8" y1="20.7" x2="89.8" y2="20.7"/>
		<line class="st11" x1="77.7" y1="37" x2="77.7" y2="38.4"/>
		<line class="st11" x1="86.8" y1="37" x2="86.8" y2="38.4"/>
		<line class="st10" x1="84" y1="28" x2="84" y2="29.3"/>
	</g>
	<g class="st6">
		<rect x="26.6" y="3.9" class="st10" width="14.7" height="3.1"/>
		<line class="st11" x1="27.4" y1="7" x2="27.4" y2="9.4"/>
		<line class="st11" x1="40.6" y1="7" x2="40.6" y2="9.4"/>
		<path class="st10" d="M34-4.7L34-4.7c-3.4,0-6.2,2.8-6.2,6.2v0.1h12.4V1.5C40.2-1.9,37.4-4.7,34-4.7z"/>
		<path class="st10" d="M36.5,1.6h-5l0,0c0-1,0.8-1.9,1.9-1.9h1.3C35.7-0.2,36.5,0.6,36.5,1.6L36.5,1.6z"/>
		<path class="st10" d="M27.7,1.7l-1.1,2.1c0,0.1,0,0.2,0.1,0.2h14.5c0.1,0,0.1-0.1,0.1-0.2l-1.1-2.1H27.7z"/>
	</g>
	<g class="st6">
		<rect x="64" y="3.8" class="st10" width="14.7" height="3.1"/>
		<line class="st11" x1="64.8" y1="6.9" x2="64.8" y2="9.2"/>
		<line class="st11" x1="78" y1="6.9" x2="78" y2="9.2"/>
		<path class="st10" d="M65.2,1.6l-1.1,2.1c0,0.1,0,0.2,0.1,0.2h14.5c0.1,0,0.1-0.1,0.1-0.2l-1.1-2.1H65.2z"/>
		<path class="st10" d="M77.4-1.5c0-1.7-1.4-3.1-3.1-3.1h-0.2c-0.5,0-1.1,0.1-1.5,0.4c-0.7,0.4-1.6,0.4-2.3,0
			c-0.4-0.2-1-0.4-1.5-0.4h-0.2c-1.7,0-3.1,1.4-3.1,3.1l-0.3,3h12.4L77.4-1.5z"/>
		<path class="st10" d="M71-1h-3.2c-0.2,0-0.4,0.2-0.4,0.4v1.7c0,0.2,0.2,0.4,0.4,0.4H71c0.2,0,0.4-0.2,0.4-0.4v-1.7
			C71.4-0.8,71.2-1,71-1z"/>
		<path class="st10" d="M75-1h-3.2c-0.2,0-0.4,0.2-0.4,0.4v1.7c0,0.2,0.2,0.4,0.4,0.4H75c0.2,0,0.4-0.2,0.4-0.4v-1.7
			C75.4-0.8,75.2-1,75-1z"/>
	</g>
	<g class="st6">
		<path class="st10" d="M113.1,5.3h-11.3c-0.6,0-1.1-0.5-1.1-1.1l0,0c0-0.6,0.5-1.1,1.1-1.1h13.4"/>
		<path class="st10" d="M116.5-4.6c-0.7,0.1-1.3,0.7-1.3,1.5c0,1.7,0,5.6,0,7.4c0,0.5-0.4,1-1,1h-10.1h-2.8v1.7l16.7,0V-3.2
			C118-4,117.3-4.6,116.5-4.6z"/>
		<path class="st10" d="M111.2,1.2h3c0.6,0,1,0.5,1,1l0,0c0,0.6-0.5,1-1,1h-3c-0.6,0-1-0.5-1-1l0,0C110.2,1.6,110.6,1.2,111.2,1.2z"
			/>
		<line class="st11" x1="102.1" y1="7.1" x2="102.1" y2="9.2"/>
		<line class="st11" x1="117.2" y1="7.1" x2="117.2" y2="9.2"/>
	</g>
	<g class="st6">
		<path class="st12" d="M112.8,32h-3.8c-0.1,0-0.2,0.1-0.2,0.2v2.3c0,0.1,0.1,0.2,0.2,0.2h3.8c0.1,0,0.2-0.1,0.2-0.2v-2.3
			C113.1,32.1,113,32,112.8,32z M112.6,34.3h-3.3v-1.9h3.3V34.3z"/>
		<rect x="108.9" y="31" class="st12" width="0.5" height="0.5"/>
		<rect x="109.8" y="31" class="st12" width="0.5" height="0.5"/>
		<rect x="110.7" y="31" class="st12" width="0.5" height="0.5"/>
		<rect x="111.7" y="31" class="st12" width="0.5" height="0.5"/>
		<rect x="112.6" y="31" class="st12" width="0.5" height="0.5"/>
		<path class="st12" d="M117.8,30.1H114h-0.5v-0.7c0-0.1-0.1-0.2-0.2-0.2h-0.7v0.5h0.5v0.5h-1.4v-0.5h0.5v-0.5h-0.7
			c-0.1,0-0.2,0.1-0.2,0.2v0.7h-0.5v-0.7c0-0.1-0.1-0.2-0.2-0.2h-0.7v0.5h0.5v0.5h-1.4v-0.5h0.5v-0.5h-0.7c-0.1,0-0.2,0.1-0.2,0.2
			v0.7h-0.5h-3v-1.6c0-0.3,0.2-0.5,0.5-0.5c0.3,0,0.5,0.2,0.5,0.5v0.2h0.5v-0.2c0-0.5-0.4-0.9-0.9-0.9c-0.5,0-0.9,0.4-0.9,0.9v0.7
			h-0.5v0.5h0.5v0.5h-0.2c-0.1,0-0.2,0.1-0.2,0.2v0.9v4.2c0,0.1,0.1,0.2,0.2,0.2h3.8h6.1h3.8c0.1,0,0.2-0.1,0.2-0.2v-4.2v-0.9
			C118,30.2,117.9,30.1,117.8,30.1z M117.5,31h-3.3v-0.5h3.3V31z M117.5,32.2h-3.3v-0.7h1.4v0.2h0.5v-0.2h1.4V32.2z M114.2,33.4
			v-0.7h1.4v0.2h0.5v-0.2h1.4v0.7H114.2z M107.7,34.3h-1.4v-2.8h1.4V34.3z M104.4,34.3v-2.8h1.4v2.8H104.4z M104.4,30.6h3.3V31h-3.3
			V30.6z M104.4,34.8h3.3v0.5h-3.3V34.8z M108.2,31.3v-0.7h5.6v0.7v4h-5.6V31.3z M114.2,35.2v-1.4h1.4v0.2h0.5v-0.2h1.4v1.4H114.2z"
			/>
		<path class="st12" d="M117.8,21.6H114c-0.1,0-0.2,0.1-0.2,0.2v3.4l-0.5-0.7v-2.7c0-0.1-0.1-0.2-0.2-0.2h-4.2
			c-0.1,0-0.2,0.1-0.2,0.2v2.7l-0.5,0.7v-3.4c0-0.1-0.1-0.2-0.2-0.2h-3.8c-0.1,0-0.2,0.1-0.2,0.2v4.2c0,0.1,0.1,0.2,0.2,0.2h3.8h6.1
			h3.8c0.1,0,0.2-0.1,0.2-0.2v-4.2C118,21.7,117.9,21.6,117.8,21.6z M107.7,25.9h-3.3v-3.8h3.3V25.9z M108.4,25.9l0.7-1
			c0,0,0-0.1,0-0.1v-2.6h3.8v2.6c0,0,0,0.1,0,0.1l0.7,1H108.4z M117.5,25.9h-3.3v-3.8h3.3V25.9z"/>
		<rect x="114.7" y="24.9" class="st12" width="2.3" height="0.5"/>
		<rect x="104.9" y="24.9" class="st12" width="2.3" height="0.5"/>
		<rect x="109.6" y="22.6" class="st12" width="0.5" height="0.5"/>
		<rect x="109.6" y="23.5" class="st12" width="0.5" height="1.2"/>
		<rect x="104.9" y="32.2" class="st12" width="0.5" height="0.5"/>
		<rect x="106.7" y="32.2" class="st12" width="0.5" height="0.5"/>
	</g>
</g>
</svg>
